<?xml version="1.0" standalone="no"?><!DOCTYPE svg PUBLIC "-//W3C//DTD SVG 1.1//EN" "http://www.w3.org/Graphics/SVG/1.1/DTD/svg11.dtd"><svg t="1766460974906" class="icon" viewBox="0 0 1024 1024" version="1.1" xmlns="http://www.w3.org/2000/svg" p-id="10766" xmlns:xlink="http://www.w3.org/1999/xlink" width="200" height="200"><path d="M343.04 119.466667c40.96 0 81.92 18.773333 112.64 51.2 29.013333 32.426667 46.08 78.506667 46.08 124.586666V904.533333H119.466667c-27.306667 0-51.2-27.306667-51.2-59.733333V208.213333C68.266667 158.72 102.4 119.466667 143.36 119.466667h199.68z m329.386667 0h194.56c40.96 0 75.093333 30.72 75.093333 78.506666v645.12c0 32.426667-22.186667 59.733333-51.2 59.733334h-375.466667l-1.706666-607.573334c0-47.786667 17.066667-92.16 46.08-124.586666 32.426667-32.426667 71.68-51.2 112.64-51.2z m27.306666 64.853333c-42.666667 0-80.213333 8.533333-102.4 47.786667-17.066667 30.72-17.066667 58.026667-17.066666 78.506666v527.36h8.533333c32.426667 0 116.053333 0 250.88 1.706667 22.186667 0 40.96-20.48 42.666667-47.786667v-3.413333l1.706666-542.72c0-39.253333-22.186667-59.733333-54.613333-61.44H699.733333z m-385.706666 460.8h-170.666667c-13.653333 0-23.893333 10.24-23.893333 23.893333s10.24 23.893333 23.893333 23.893334h172.373333c13.653333 0 23.893333-10.24 23.893334-23.893334s-11.946667-23.893333-25.6-23.893333z m98.986666-98.986667H143.36c-13.653333 0-23.893333 10.24-23.893333 23.893334s10.24 23.893333 23.893333 23.893333h269.653333c13.653333 0 23.893333-10.24 23.893334-23.893333S426.666667 546.133333 413.013333 546.133333zM238.933333 216.746667c-10.24 0-17.066667 8.533333-17.066666 20.48H153.6v8.533333l-37.546667 80.213333c0 23.893333 17.066667 46.08 44.373334 46.08s44.373333-22.186667 44.373333-46.08l-34.133333-73.386666h52.906666V409.6h-49.493333c-20.48 0-29.013333 10.24-29.013333 29.013333h191.146666c0-15.36-8.533333-29.013333-29.013333-29.013333h-54.613333v-155.306667h56.32l-34.133334 73.386667c0 23.893333 17.066667 46.08 44.373334 46.08s44.373333-22.186667 44.373333-46.08l-37.546667-81.92v-8.533333h-68.266666c0-11.946667-8.533333-20.48-18.773334-20.48z m-76.8 42.666666l25.6 73.386667H134.826667l27.306666-73.386667z m157.013334 0l25.6 73.386667h-52.906667l27.306667-73.386667z" fill="#3664D1" p-id="10767"></path><path d="M812.373333 648.533333c10.24 0 23.893333 6.826667 23.893334 25.6s-15.36 25.6-23.893334 25.6H638.293333c-5.12 0-23.893333-5.12-23.893333-25.6s15.36-25.6 25.6-25.6h172.373333z m0-136.533333c10.24 0 23.893333 6.826667 23.893334 25.6s-15.36 25.6-23.893334 25.6H638.293333c-5.12 0-23.893333-5.12-23.893333-25.6s15.36-25.6 25.6-25.6h172.373333z m0-136.533333c10.24 0 23.893333 6.826667 23.893334 25.6s-15.36 25.6-23.893334 25.6H638.293333c-5.12 0-23.893333-5.12-23.893333-25.6s15.36-25.6 25.6-25.6h172.373333z" fill="#F55656" p-id="10768"></path></svg>